<?xml version="1.0" encoding="UTF-8"?>
<svg width="13px" height="12px" viewBox="0 0 13 12" version="1.1" xmlns="http://www.w3.org/2000/svg" xmlns:xlink="http://www.w3.org/1999/xlink">
    <!-- Generator: sketchtool 60.1 (101010) - https://sketch.com -->
    <title>E2A94C2A-8245-44AC-9445-E97DAA14B715</title>
    <desc>Created with sketchtool.</desc>
    <g id="Dev_Challenge_V2" stroke="none" stroke-width="1" fill="none" fill-rule="evenodd">
        <g id="Desktop-HD" transform="translate(-340.000000, -506.000000)" fill="#2C2C2C" fill-rule="nonzero">
            <g id="Sheets-/-Bottom-Sheet" transform="translate(208.000000, 129.000000)">
                <g id="Group-8" transform="translate(72.000000, 98.000000)">
                    <g id="Sheets-/-Inner-Sheet">
                        <g id="Cards-/-List-1-up-/-Filled-/-Image-Left-/-Resting" transform="translate(20.000000, 19.000000)">
                            <g id="Group-7" transform="translate(40.008000, 257.808000)">
                                <path d="M12.984,3.86971394 L12.984,14.111 L10.3934423,11.844262 L1.27967308,11.844262 C0.925940539,11.844262 0.624232018,11.7304711 0.374538462,11.5028858 C0.124844905,11.2753005 0,11.006754 0,10.697238 L0,3.86971394 C0,3.56019797 0.124844905,3.29620302 0.374538462,3.07772115 C0.624232018,2.85923929 0.925940539,2.75 1.27967308,2.75 L11.7043269,2.75 C12.0580595,2.75 12.359768,2.85923929 12.6094615,3.07772115 C12.8591551,3.29620302 12.984,3.56019797 12.984,3.86971394 Z" id="mode_comment---material"></path>
                            </g>
                        </g>
                    </g>
                </g>
            </g>
        </g>
    </g>
</svg>