<?xml version="1.0" encoding="UTF-8"?>
<svg width="9px" height="8px" viewBox="0 0 9 8" version="1.1" xmlns="http://www.w3.org/2000/svg" xmlns:xlink="http://www.w3.org/1999/xlink">
    <!-- Generator: sketchtool 60.1 (101010) - https://sketch.com -->
    <title>D2396D38-70F7-4113-A3BB-3C447F91362A</title>
    <desc>Created with sketchtool.</desc>
    <g id="Dev_Challenge_V2" stroke="none" stroke-width="1" fill="#2C2C2C" fill-rule="evenodd">
        <g id="Desktop-HD" transform="translate(-1097.000000, -562.000000)" fill="#2C2C2C" fill-rule="nonzero">
            <g id="Sheets-/-Bottom-Sheet" transform="translate(208.000000, 129.000000)">
                <g id="Group-8" transform="translate(72.000000, 98.000000)">
                    <g id="Group-6" transform="translate(58.000000, 332.000000)">
                        <g id="Comment-Copy-2">
                            <path d="M767.536,3.43596667 L767.536,4.32916667 L759,4.32916667 L759,3.43596667 L761.126667,3.43596667 L761.757333,3 L764.793333,3 L765.424,3.43596667 L767.536,3.43596667 Z M759.601333,10.0818 L759.601333,4.76513333 L766.934667,4.76513333 L766.934667,10.0818 C766.934667,10.3228234 766.812446,10.5319436 766.568,10.7091667 C766.323556,10.8863898 766.035113,10.975 765.702667,10.975 L760.833333,10.975 C760.500887,10.975 760.212444,10.8863898 759.968,10.7091667 C759.723554,10.5319436 759.601333,10.3228234 759.601333,10.0818 Z" id="delete---material"></path>
                        </g>
                    </g>
                </g>
            </g>
        </g>
    </g>
</svg>